<?xml version="1.0" encoding="UTF-8" standalone="no"?>
<!-- Created with Inkscape (http://www.inkscape.org/) -->

<svg
   width="12.8mm"
   height="12.8mm"
   viewBox="0 0 12.8 12.8"
   version="1.1"
   id="svg5"
   inkscape:version="1.2.1 (9c6d41e4, 2022-07-14)"
   sodipodi:docname="Davies 1900h T18.svg"
   xmlns:inkscape="http://www.inkscape.org/namespaces/inkscape"
   xmlns:sodipodi="http://sodipodi.sourceforge.net/DTD/sodipodi-0.dtd"
   xmlns="http://www.w3.org/2000/svg"
   xmlns:svg="http://www.w3.org/2000/svg">
  <sodipodi:namedview
     id="namedview7"
     pagecolor="#505050"
     bordercolor="#eeeeee"
     borderopacity="1"
     inkscape:showpageshadow="0"
     inkscape:pageopacity="0"
     inkscape:pagecheckerboard="0"
     inkscape:deskcolor="#505050"
     inkscape:document-units="mm"
     showgrid="false"
     inkscape:zoom="11.835115"
     inkscape:cx="-1.5631449"
     inkscape:cy="20.320884"
     inkscape:window-width="1792"
     inkscape:window-height="1067"
     inkscape:window-x="0"
     inkscape:window-y="25"
     inkscape:window-maximized="0"
     inkscape:current-layer="layer1" />
  <defs
     id="defs2">
    <rect
       x="30.93055"
       y="79.646164"
       width="68.63031"
       height="17.01306"
       id="rect802" />
    <linearGradient
       id="linearGradient2578"
       inkscape:swatch="solid">
      <stop
         style="stop-color:#000000;stop-opacity:1;"
         offset="0"
         id="stop2576" />
    </linearGradient>
    <linearGradient
       id="Cream"
       inkscape:swatch="solid">
      <stop
         style="stop-color:#fcf9f0;stop-opacity:1;"
         offset="0"
         id="stop1624" />
    </linearGradient>
  </defs>
  <g
     inkscape:groupmode="layer"
     id="layer2"
     inkscape:label="Cuts"
     inkscape:highlight-color="#e49c0c">
    <circle
       style="fill:none;stroke:#4d4d4d;stroke-width:1;stroke-dasharray:none;stroke-opacity:1;paint-order:normal"
       id="path3321"
       cx="6.4000001"
       cy="6.4000001"
       r="4.2174997"
       inkscape:label="Hole" />
  </g>
  <g
     inkscape:groupmode="layer"
     id="layer3"
     inkscape:label="Alignment"
     transform="translate(4.8000002,4.8000002)">
    <circle
       style="fill:none;stroke:#3c939c;stroke-width:0.2;stroke-dasharray:none;stroke-opacity:1"
       id="path3858"
       cx="1.5999999"
       cy="1.5999999"
       r="0.5"
       inkscape:label="Center" />
  </g>
  <g
     inkscape:label="Decor"
     inkscape:groupmode="layer"
     id="layer1"
     style="display:inline">
    <circle
       style="fill:#fcf9f0;fill-opacity:1;stroke:#000000;stroke-width:0.1;stroke-dasharray:none;stroke-opacity:1;paint-order:normal"
       id="path2542-8"
       cx="6.4000001"
       cy="6.4000001"
       r="6.3499999"
       inkscape:label="Outline" />
    <path
       sodipodi:type="star"
       style="display:inline;fill:none;fill-opacity:1;stroke:#000000;stroke-width:0.224813;stroke-dasharray:none;stroke-opacity:1"
       id="path788"
       inkscape:flatsided="false"
       sodipodi:sides="8"
       sodipodi:cx="21.438744"
       sodipodi:cy="24.501421"
       sodipodi:r1="13.454884"
       sodipodi:r2="11.773024"
       sodipodi:arg1="0.72097132"
       sodipodi:arg2="1.1136704"
       inkscape:rounded="0.5"
       inkscape:randomized="0"
       d="m 31.54558,33.383186 c -1.713259,1.949571 -2.581652,0.536928 -4.910566,1.68246 -2.328913,1.145533 -1.740003,2.695646 -4.330014,2.862744 -2.590012,0.167097 -2.205169,-1.445839 -4.661973,-2.282615 -2.456805,-0.836777 -3.136478,0.675741 -5.086049,-1.037518 -1.94957,-1.713259 -0.536927,-2.581652 -1.68246,-4.910565 C 9.7289858,27.368778 8.1788723,27.957689 8.0117747,25.367677 7.8446772,22.777665 9.4576135,23.162508 10.29439,20.705704 11.131167,18.2489 9.6186483,17.569226 11.331907,15.619656 c 1.713259,-1.949571 2.581653,-0.536928 4.910566,-1.68246 2.328913,-1.145533 1.740003,-2.695646 4.330014,-2.862744 2.590012,-0.167097 2.20517,1.445839 4.661974,2.282615 2.456804,0.836777 3.136477,-0.675741 5.086048,1.037518 1.94957,1.713259 0.536927,2.581652 1.68246,4.910565 1.145532,2.328914 2.695646,1.740003 2.862743,4.330015 0.167098,2.590011 -1.445838,2.205169 -2.282615,4.661973 -0.836776,2.456804 0.675742,3.136478 -1.037517,5.086048 z"
       transform="matrix(-0.0271552,0.44398359,-0.44398359,-0.0271552,17.860402,-2.4531104)"
       inkscape:label="Top" />
    <path
       style="fill:#000000;stroke:#000000;stroke-width:0.75;stroke-dasharray:none;stroke-opacity:1"
       d="m 6.4000003,1.399999 v 5"
       id="path2451"
       inkscape:label="Indicator" />
  </g>
</svg>
